<?xml version="1.0" encoding="utf-8"?>
<!-- Generator: Adobe Illustrator 18.0.0, SVG Export Plug-In . SVG Version: 6.00 Build 0)  -->
<!DOCTYPE svg PUBLIC "-//W3C//DTD SVG 1.1//EN" "http://www.w3.org/Graphics/SVG/1.1/DTD/svg11.dtd">
<svg version="1.1" id="Layer_1" xmlns="http://www.w3.org/2000/svg" xmlns:xlink="http://www.w3.org/1999/xlink" x="0px" y="0px"
	 viewBox="0 0 64 64" enable-background="new 0 0 64 64" xml:space="preserve">
<g>
	<g>
		<g>
			<g>
				<path d="M13.5,51h36.9l0.5-11.3C57.7,38,62,32.4,62,25c0-8.7-7-15.8-15.6-16C43.7,3.6,38.1,0,32,0S20.3,3.6,17.6,9
					C9,9.2,2,16.3,2,25c0,6.8,4.4,12.5,11.1,14.6L13.5,51z M38,39c0-1.1,0.9-2,2-2s2,0.9,2,2v4c0,1.1-0.9,2-2,2s-2-0.9-2-2V39z
					 M30,33c0-1.1,0.9-2,2-2s2,0.9,2,2v10c0,1.1-0.9,2-2,2s-2-0.9-2-2V33z M22,39c0-1.1,0.9-2,2-2s2,0.9,2,2v4c0,1.1-0.9,2-2,2
					s-2-0.9-2-2V39z"/>
			</g>
		</g>
	</g>
	<g>
		<g>
			<g>
				<polygon points="13.7,55 14.1,64 49.9,64 50.3,55 				"/>
			</g>
		</g>
	</g>
</g>
</svg>
