<svg xmlns="http://www.w3.org/2000/svg" width="113.999" height="40.001" viewBox="0 0 113.999 40.001">
  <path id="Subtraction_3" data-name="Subtraction 3" d="M114,40H0V0H114V40ZM55.89,34.219a1.931,1.931,0,0,0-.734.14,1.853,1.853,0,0,0-.594.382,1.817,1.817,0,0,0-.4.586,2.07,2.07,0,0,0-.006,1.524,1.731,1.731,0,0,0,.4.586,1.771,1.771,0,0,0,.6.382,2.025,2.025,0,0,0,.734.133,1.921,1.921,0,0,0,.734-.14,1.793,1.793,0,0,0,.593-.391,1.882,1.882,0,0,0,.547-1.344,1.939,1.939,0,0,0-.14-.758,1.746,1.746,0,0,0-.4-.586,1.783,1.783,0,0,0-.594-.383A2,2,0,0,0,55.89,34.219Zm5.4,1.137v1.172H68.47V35.356H66.125V26.727h.059a4.169,4.169,0,0,0,1.656,1.662,4.647,4.647,0,0,0,2.183.52,5.617,5.617,0,0,0,4.146-1.8A6.433,6.433,0,0,0,75.45,25a7.891,7.891,0,0,0,.475-2.813,8,8,0,0,0-.432-2.695,6.072,6.072,0,0,0-1.209-2.073,5.4,5.4,0,0,0-1.839-1.326,5.644,5.644,0,0,0-2.307-.469,4.839,4.839,0,0,0-2.284.542,4.113,4.113,0,0,0-1.671,1.729h-.059V16.019H61.291v1.172h2.2V35.356ZM52.14,16.5v1.25h2.344V29.813h5.156v-1.25H57.3V17.75h2.344V16.5Zm41.13,5.628h0l.189,5.8a12.4,12.4,0,0,0,1.393.439c.488.125,1,.238,1.53.337s1.047.171,1.581.22S99.018,29,99.509,29a10.679,10.679,0,0,0,3.075-.41,6.577,6.577,0,0,0,2.308-1.186,5.144,5.144,0,0,0,1.45-1.919,6.4,6.4,0,0,0,.507-2.608,5.758,5.758,0,0,0-.5-2.526,5.3,5.3,0,0,0-1.31-1.714,7.594,7.594,0,0,0-1.845-1.157c-.682-.306-1.39-.6-2.1-.872-.775-.29-1.5-.574-2.146-.842a7.705,7.705,0,0,1-1.671-.923A3.725,3.725,0,0,1,96.2,13.6a3.832,3.832,0,0,1-.381-1.8,4.646,4.646,0,0,1,.271-1.634,3.2,3.2,0,0,1,.814-1.23,3.651,3.651,0,0,1,1.362-.777,6.193,6.193,0,0,1,1.934-.271,6.331,6.331,0,0,1,1.633.212,3.618,3.618,0,0,1,1.451.777,4.484,4.484,0,0,1,1.105,1.56,7.892,7.892,0,0,1,.586,2.578H106L105.823,7.7c-.409-.145-.848-.281-1.3-.4s-.923-.227-1.4-.315-.95-.154-1.428-.2-.95-.066-1.391-.066a9.245,9.245,0,0,0-2.982.439A6.01,6.01,0,0,0,95.173,8.4a5.152,5.152,0,0,0-1.3,1.926,6.846,6.846,0,0,0-.439,2.49,5.689,5.689,0,0,0,.462,2.425,4.9,4.9,0,0,0,1.252,1.648,7.457,7.457,0,0,0,1.824,1.128c.686.3,1.418.592,2.175.864.772.278,1.477.544,2.094.791a6.927,6.927,0,0,1,1.633.9,3.731,3.731,0,0,1,1.063,1.26,4.107,4.107,0,0,1,.381,1.882,5.373,5.373,0,0,1-.256,1.692,3.275,3.275,0,0,1-.821,1.319,3.886,3.886,0,0,1-1.435.857,6.366,6.366,0,0,1-2.1.308,6.823,6.823,0,0,1-1.941-.271,4.042,4.042,0,0,1-1.625-.931,5.222,5.222,0,0,1-1.2-1.772,9.331,9.331,0,0,1-.644-2.784H93.27Zm-8.673-6.5a5.92,5.92,0,0,0-2.541.535A6.061,6.061,0,0,0,80.107,17.6a6.452,6.452,0,0,0-1.253,2.138,7.752,7.752,0,0,0-.438,2.608,7.53,7.53,0,0,0,.424,2.541,6.221,6.221,0,0,0,1.23,2.088,5.845,5.845,0,0,0,1.963,1.413,6.378,6.378,0,0,0,2.637.52,5.3,5.3,0,0,0,3.5-1.128,5.7,5.7,0,0,0,1.816-3.252,4.728,4.728,0,0,0-.555-.176,4.248,4.248,0,0,0-.586-.1,6.189,6.189,0,0,1-.624,1.6,3.94,3.94,0,0,1-.9,1.084,3.334,3.334,0,0,1-1.15.608,4.734,4.734,0,0,1-1.354.19,4.33,4.33,0,0,1-1.414-.22,2.33,2.33,0,0,1-1.1-.828A4.535,4.535,0,0,1,81.587,25a12.691,12.691,0,0,1-.256-2.813v-.094c0-.041,0-.138.014-.33h8.834a8.169,8.169,0,0,0-.418-2.475,5.724,5.724,0,0,0-1.106-1.941,5.008,5.008,0,0,0-1.743-1.267A5.7,5.7,0,0,0,84.6,15.624Zm-37.9,0a6.47,6.47,0,0,0-2.659.535A6.241,6.241,0,0,0,42,17.608a6.47,6.47,0,0,0-1.311,2.147,7.448,7.448,0,0,0-.462,2.622,7.239,7.239,0,0,0,.44,2.52,6.349,6.349,0,0,0,1.252,2.08A5.892,5.892,0,0,0,43.9,28.39a6.389,6.389,0,0,0,2.63.52,5.147,5.147,0,0,0,3.435-1.128,5.9,5.9,0,0,0,1.809-3.34,4.513,4.513,0,0,0-.557-.176,3.953,3.953,0,0,0-.586-.1A6.342,6.342,0,0,1,50,25.841a3.952,3.952,0,0,1-.894,1.1,3.282,3.282,0,0,1-1.121.608,4.412,4.412,0,0,1-1.3.19,4.477,4.477,0,0,1-1.406-.212,2.4,2.4,0,0,1-1.121-.806,4.394,4.394,0,0,1-.747-1.648,11.468,11.468,0,0,1-.271-2.754,11.844,11.844,0,0,1,.293-2.929,4.438,4.438,0,0,1,.784-1.692,2.28,2.28,0,0,1,1.128-.777,4.8,4.8,0,0,1,1.326-.183,5.809,5.809,0,0,1,1.194.139,2.766,2.766,0,0,1,1.149.535,2.552,2.552,0,0,0-.586.82,2.066,2.066,0,0,0-.191.82,1.557,1.557,0,0,0,.418,1.085,1.476,1.476,0,0,0,1.136.454,1.97,1.97,0,0,0,.556-.087,1.613,1.613,0,0,0,.535-.278,1.512,1.512,0,0,0,.4-.506,1.72,1.72,0,0,0,.161-.784,2.467,2.467,0,0,0-.352-1.26,3.478,3.478,0,0,0-.981-1.054,5.206,5.206,0,0,0-1.5-.725A6.407,6.407,0,0,0,46.7,15.624Zm-14.765,0a5.922,5.922,0,0,0-2.542.535A6.069,6.069,0,0,0,27.446,17.6a6.4,6.4,0,0,0-1.252,2.138,7.715,7.715,0,0,0-.439,2.608,7.56,7.56,0,0,0,.425,2.541,6.185,6.185,0,0,0,1.23,2.088,5.846,5.846,0,0,0,1.963,1.413,6.376,6.376,0,0,0,2.636.52,5.3,5.3,0,0,0,3.5-1.128,5.7,5.7,0,0,0,1.817-3.252,4.881,4.881,0,0,0-.557-.176,4.2,4.2,0,0,0-.586-.1,6.12,6.12,0,0,1-.623,1.6,3.929,3.929,0,0,1-.9,1.084,3.337,3.337,0,0,1-1.149.608,4.746,4.746,0,0,1-1.355.19,4.33,4.33,0,0,1-1.414-.22,2.33,2.33,0,0,1-1.1-.828A4.535,4.535,0,0,1,28.925,25a12.69,12.69,0,0,1-.256-2.813v-.094c0-.053,0-.152.014-.33h8.833a8.135,8.135,0,0,0-.418-2.475,5.7,5.7,0,0,0-1.105-1.941,5.043,5.043,0,0,0-1.742-1.267A5.711,5.711,0,0,0,31.936,15.624ZM11.237,18h2.754a4.611,4.611,0,0,1,1.831.3,2.291,2.291,0,0,1,1.07,1.011,6.342,6.342,0,0,1,.615,1.883c.148.792.3,1.767.439,2.9.1.789.2,1.479.308,2.051a3.783,3.783,0,0,0,.55,1.436,2.264,2.264,0,0,0,1.113.842,5.908,5.908,0,0,0,2,.271c.133,0,.284,0,.506-.007.241-.008.422-.017.586-.03.2-.015.4-.037.593-.066s.384-.065.542-.1V27.357c-.187.028-.362.047-.535.059-.143.009-.272.014-.374.014a1.682,1.682,0,0,1-1.12-.344,2.324,2.324,0,0,1-.637-.967,7.748,7.748,0,0,1-.373-1.48c-.089-.547-.186-1.133-.315-1.9-.118-.679-.254-1.3-.4-1.853a5.727,5.727,0,0,0-.629-1.5A3.711,3.711,0,0,0,18.7,18.275a4.789,4.789,0,0,0-1.663-.689v-.059a7.629,7.629,0,0,0,2.117-.769,5.477,5.477,0,0,0,1.5-1.209,4.88,4.88,0,0,0,.9-1.567,5.574,5.574,0,0,0,.3-1.831,4.78,4.78,0,0,0-.425-2.029,3.792,3.792,0,0,0-1.406-1.56,7.75,7.75,0,0,0-2.579-1,18.754,18.754,0,0,0-3.926-.352H5.451V8.387H8.381V27.328H5.451V28.5h8.862V27.328H11.237V18Zm16.108-6H27.5v.5h61v-1h-61V12ZM69.831,27.752a4.507,4.507,0,0,1-.717-.066,3.177,3.177,0,0,1-.806-.256,3.143,3.143,0,0,1-.8-.556,3.434,3.434,0,0,1-.7-.975,6.046,6.046,0,0,1-.491-1.487,10.475,10.475,0,0,1-.184-2.094,11.332,11.332,0,0,1,.2-2.182,5.552,5.552,0,0,1,.636-1.758,3.106,3.106,0,0,1,2.857-1.6,3.646,3.646,0,0,1,1.289.22,2.219,2.219,0,0,1,1.019.827,4.653,4.653,0,0,1,.667,1.67,13.245,13.245,0,0,1,.233,2.747,12.82,12.82,0,0,1-.248,2.79,4.8,4.8,0,0,1-.674,1.678,2.177,2.177,0,0,1-1.011.82A3.569,3.569,0,0,1,69.831,27.752Zm17.388-7.133h-5.8a7.753,7.753,0,0,1,.373-1.9,3.457,3.457,0,0,1,.68-1.186,2.261,2.261,0,0,1,.931-.616,3.515,3.515,0,0,1,1.121-.176,3.435,3.435,0,0,1,1.048.154,1.78,1.78,0,0,1,.826.579,3.178,3.178,0,0,1,.564,1.179,8.685,8.685,0,0,1,.256,1.969Zm-52.661,0h-5.8a7.707,7.707,0,0,1,.374-1.9,3.44,3.44,0,0,1,.681-1.186,2.255,2.255,0,0,1,.931-.616,3.512,3.512,0,0,1,1.121-.176,3.416,3.416,0,0,1,1.047.154,1.779,1.779,0,0,1,.828.579,3.218,3.218,0,0,1,.565,1.179,8.784,8.784,0,0,1,.256,1.969ZM13.186,16.825H11.237V8.387h2.11a14.167,14.167,0,0,1,2.717.212,4.016,4.016,0,0,1,1.641.667,2.287,2.287,0,0,1,.813,1.179,6.106,6.106,0,0,1,.22,1.751,7.153,7.153,0,0,1-.271,2.1,3.06,3.06,0,0,1-.923,1.436,4.094,4.094,0,0,1-1.714.827A11.258,11.258,0,0,1,13.186,16.825Z"/>
</svg>
