<svg xmlns="http://www.w3.org/2000/svg" width="104.391" height="18.62" viewBox="0 0 104.391 18.62">
  <path id="Union_1" data-name="Union 1" d="M52.239,18.619V16.637h2V18.62Zm10.915-.26V4.522h1.563v1.6a3.489,3.489,0,0,1,5.976-.264A6.42,6.42,0,0,1,71.68,9.6a6.015,6.015,0,0,1-1.328,4.141,3.492,3.492,0,0,1-2.714,1.24,3.137,3.137,0,0,1-2.861-1.787V18.36ZM64.776,7.578v4.18a2.914,2.914,0,0,0,2.519,1.9,2.317,2.317,0,0,0,2.031-1.152,5.232,5.232,0,0,0,.693-2.871,5.055,5.055,0,0,0-.84-3.145,2.156,2.156,0,0,0-1.768-.879,2.979,2.979,0,0,0-2.635,1.967ZM96.386,12.5l1.582-.566a2.429,2.429,0,0,0,2.52,1.845,2.612,2.612,0,0,0,1.855-.566A1.456,1.456,0,0,0,102.8,12.1a1.449,1.449,0,0,0-.488-1.23,5.548,5.548,0,0,0-1.749-.674l-.82-.175a4.888,4.888,0,0,1-2.452-1.2,2.606,2.606,0,0,1-.546-1.758,2.452,2.452,0,0,1,1.025-2.08,4.324,4.324,0,0,1,2.6-.7,3.611,3.611,0,0,1,3.76,2.461l-1.562.5a2.159,2.159,0,0,0-2.217-1.758,2.461,2.461,0,0,0-1.6.459,1.241,1.241,0,0,0-.478,1.006A1.353,1.353,0,0,0,98.76,8.1a4.668,4.668,0,0,0,1.611.626l.821.2a5.267,5.267,0,0,1,2.569,1.191,2.552,2.552,0,0,1,.625,1.836,2.668,2.668,0,0,1-1.1,2.266,4.673,4.673,0,0,1-2.832.771Q97.3,14.981,96.386,12.5Zm-15.508.878a5.918,5.918,0,0,1-1.093-3.721A5.749,5.749,0,0,1,81.2,5.567a3.958,3.958,0,0,1,3.008-1.289A3.858,3.858,0,0,1,87.451,5.84,5.866,5.866,0,0,1,88.526,9.5v.361H81.367a4.407,4.407,0,0,0,.928,3.018,2.635,2.635,0,0,0,2.07.879,2.5,2.5,0,0,0,2.6-2.081l1.5.5a3.981,3.981,0,0,1-4.121,2.8,4.118,4.118,0,0,1-3.465-1.6Zm1.3-6.884A3.913,3.913,0,0,0,81.406,8.7h5.538a3.883,3.883,0,0,0-.928-2.471,2.385,2.385,0,0,0-1.787-.713,2.5,2.5,0,0,0-2.051.978ZM36.065,13.378a6.128,6.128,0,0,1-1.036-3.721A5.8,5.8,0,0,1,36.4,5.547a3.963,3.963,0,0,1,3.037-1.269,3.9,3.9,0,0,1,2.617.878,4.12,4.12,0,0,1,1.28,2.168l-1.6.42q-.44-2.188-2.275-2.188a2.322,2.322,0,0,0-2.11,1.192,5.414,5.414,0,0,0-.654,2.871,5.11,5.11,0,0,0,.84,3.173,2.316,2.316,0,0,0,1.924.928q1.953,0,2.392-2.245l1.543.478a3.767,3.767,0,0,1-3.955,3.028,3.95,3.95,0,0,1-3.374-1.6Zm-16.748,0a5.913,5.913,0,0,1-1.094-3.721A5.749,5.749,0,0,1,19.64,5.566a3.958,3.958,0,0,1,3.008-1.289A3.857,3.857,0,0,1,25.889,5.84,5.866,5.866,0,0,1,26.963,9.5v.361H19.8a4.407,4.407,0,0,0,.928,3.018,2.636,2.636,0,0,0,2.07.879,2.507,2.507,0,0,0,2.6-2.081l1.5.5a3.982,3.982,0,0,1-4.121,2.8,4.116,4.116,0,0,1-3.46-1.6Zm1.3-6.884A3.912,3.912,0,0,0,19.844,8.7h5.537a3.883,3.883,0,0,0-.928-2.471,2.382,2.382,0,0,0-1.787-.713,2.5,2.5,0,0,0-2.051.978ZM8.5,14.737,5.254,7.852H1.7v6.885H0V0H4.961q5.058,0,5.059,3.857a3.564,3.564,0,0,1-.889,2.48A4.1,4.1,0,0,1,6.9,7.567l3.525,7.168ZM1.7,6.494H4.737q3.506,0,3.505-2.617a2.156,2.156,0,0,0-.879-1.924,4.5,4.5,0,0,0-2.5-.556H1.7Zm50.725,8.179V4.459h1.641V14.674Z" fill="#fff"/>
</svg>
